<svg xmlns="http://www.w3.org/2000/svg" viewBox="0 0 712.07 712.245">
    <defs>
        <style>
            .cls-1{fill:none}.cls-2{fill:#5b56f7}.cls-3{clip-path:url(#clip-path)}.cls-4{fill:#e48868}.cls-5{fill:#ece0d3}.cls-6{fill:#393762}.cls-7{fill:#7fbbf7}.cls-8{fill:#4e587f}.cls-9{fill:#639bda}.cls-10{fill:#efc33b}.cls-11{fill:#de6879}.cls-12{fill:#f4cdb3}.cls-13{fill:#cfb199}.cls-14{fill:#c55469}.cls-15{fill:#f4b392}.cls-16{fill:#9480fa}.cls-17{fill:#49478a}.cls-18{fill:#ff9f27}.cls-19{fill:#e8a12b}.cls-20{fill:#ba745d}
        </style>
        <clipPath id="clip-path">
            <path id="Path_113" d="M118.11 3S.08 85.42 0 186s79.9 136.21 115.62 160.7 110 57.57 180.45 200.29 162.14 208.36 416 142.72V3z" class="cls-1" data-name="Path 113"/>
        </clipPath>
    </defs>
    <g id="Artboard_1" data-name="Artboard 1" transform="translate(0 -3)">
        <path id="Path_22" d="M118.11 3S.08 85.42 0 186s79.9 136.21 115.62 160.7 110 57.57 180.45 200.29 162.14 208.36 416 142.72V3z" class="cls-2" data-name="Path 22"/>
        <g id="Group_45" class="cls-3" data-name="Group 45">
            <path id="Path_23" d="M655.36 256.61l3.06-12.11-10.27-69.36h11.53s20.39 65.69 20.76 70.46-2.57 38.17-2.57 38.17z" class="cls-4" data-name="Path 23"/>
            <path id="Path_24" d="M626.5 506.14l-54.68 53.94 4.77 7.34s64.95-34.5 69.72-39.63 11-24.59 11-24.59z" class="cls-4" data-name="Path 24"/>
            <path id="Path_25" d="M743.19 469.81s11 15.41 11.74 20.55-67.88 77.06-67.88 77.06l-4.78-7.34s31.93-57.61 40.73-66.42l-11-13.94z" class="cls-4" data-name="Path 25"/>
            <path id="Path_26" d="M593.14 539.05l-21.32 21 4.77 7.34S590 560.33 605 552.1a92.653 92.653 0 0 1-11.86-13.05z" class="cls-5" data-name="Path 26"/>
            <path id="Path_27" d="M699.46 530c-9.13 15.58-17.19 30.11-17.19 30.11l4.78 7.34S698.93 555 712.76 540c-4.37-3.41-8.76-6.81-13.3-10z" class="cls-5" data-name="Path 27"/>
            <path id="Path_28" d="M626.5 432.01v74.13l37.81 5.87 12.83-53.21 6.97-2.93 24.22 36.32 34.86-22.38-46.6-70.12z" class="cls-6" data-name="Path 28"/>
            <path id="Path_29" d="M576.59 567.42l-4.77 6.95 2.39 5.33 4.59 3.48h-9.54l-9.91-11.07 12.47-12.03z" class="cls-6" data-name="Path 29"/>
            <path id="Path_30" d="M687.04 567.42l-4.77 6.95 2.39 5.33 4.59 3.48h-9.54l-9.91-11.07 12.47-12.03z" class="cls-6" data-name="Path 30"/>
            <path id="Path_31" d="M563.46 344.31s23.65-21.28 30.68-23.85 33.09-15 33.09-15l11.29-6.69 16.84-42.11 29.83 18.71-10.59 37.38 10.59 56.15 18.37 30.79S670.17 423.21 626.5 432l-22.39-77.79-24.58 15.41z" class="cls-7" data-name="Path 31"/>
            <path id="Path_32" d="M532.4 313.59l29.29 38.98-18.75 10.88-23.33-52.05z" class="cls-4" data-name="Path 32"/>
            <path id="Path_33" d="M518.16 310s6.83 6.63 9.31 7.17 4.93-3.62 4.93-3.62 2.11-6.23 3.68-7.51 5.81-6.61 4.8-7.29-6.2 2.61-6.2 2.61L525 283.91c-1.56-3.25-2.6-.72-3.42.07s1.95 9.68 1.95 9.68-3.56.08-3.92.85l-1.17 2.42s-4 .37-4.21 1.29 2.83 4.4 2.83 4.4-1.8 1.79-1.83 2.34 2.93 5.04 2.93 5.04z" class="cls-4" data-name="Path 33"/>
            <path id="Path_34" d="M580.84 240.23l.48.19c.33-.4.65-.8 1-1.21l-.92-.35 1.41-3.7 1.9.72c.27-.41.52-.85.78-1.27l-2.16-.82 1.41-3.71 2.76 1.06c.24-.44.46-.87.68-1.32l-2.92-1.11 1.41-3.7 3.18 1.21c.19-.45.39-.89.57-1.35l-3.23-1.23 1.41-3.71 3.2 1.22c.16-.46.34-.93.49-1.38l-3.16-1.21 1.41-3.7 2.9 1.1c.13-.48.26-1 .38-1.42l-2.76-1 1.41-3.71 2.24.86c.1-.5.16-1 .25-1.48l-2-.75 1.41-3.7 1.08.41c0-.51.12-1 .14-1.52l-.69-.26.73-1.92a36.735 36.735 0 0 0-.18-3.68l-3.7-1.41 1.41-3.7 1.54.58c-.16-.61-.37-1.19-.56-1.79l-.45-.17.21-.55c-.25-.67-.53-1.32-.83-2l-.76 2-3.7-1.41 1.41-3.7 1.73.65a24.419 24.419 0 0 0-2.34-3.17l-.24.62-3.7-1.41.86-2.25c-.39-.32-.81-.63-1.22-.94l-1 2.67-3.71-1.41 1.32-3.45c-.43-.25-.85-.49-1.3-.72l-1.42 3.63-3.7-1.42 1.48-3.87-.68-.3c-.24-.09-.46-.14-.7-.23l-1.4 3.88-3.71-1.41 1.39-3.65c-.49-.12-1-.22-1.44-.32l-1.37 3.46-3.7-1.41 1-2.66c-.51 0-1-.1-1.53-.12l-.85 2.26-3.71-1.41.24-.63a23.64 23.64 0 0 0-3.86.82l1.73.66-1.41 3.7-3.71-1.41.76-2c-.65.28-1.29.58-1.92.91l-.21.56-.45-.17a14.662 14.662 0 0 0-1.61 1l1.54.59-1.41 3.7-3.7-1.41a35.93 35.93 0 0 0-2.58 2.64l-.73 1.91-.69-.26c-.31.39-.61.82-.91 1.22l1.08.41-1.41 3.71-2-.75c-.26.42-.53.83-.79 1.27l2.24.85-1.41 3.7-2.76-1-.67 1.32 2.9 1.11-1.41 3.7-3.16-1.2c-.19.44-.37.91-.55 1.36l3.19 1.21-1.41 3.7-3.23-1.22c-.17.46-.31.92-.47 1.39l3.18 1.21-1.41 3.7-2.93-1.11c-.12.47-.25.95-.36 1.43l2.76 1-1.41 3.71-2.16-.83c-.09.49-.19 1-.26 1.47l1.9.73-1.41 3.7-.92-.35c0 .52-.06 1-.08 1.54l.48.18-.51 1.34c0 1.47 0 2.91.13 4.33l3.52 1.34-1.41 3.7-1.59-.6c.1.57.2 1.13.32 1.69l.75.29-.43 1.11c.2.82.42 1.62.66 2.41l1.14-3 3.7 1.41-1.41 3.7-3.13-1.19c.2.61.39 1.22.62 1.81l2 .75-.77 2c.29.59.61 1.14.93 1.7l1.21-3.19 3.7 1.41-1.41 3.7-3.08-1.17c.44.73.91 1.42 1.4 2.1l1.16.44-.29.78c.35.43.73.82 1.1 1.23l.56-1.48 3.71 1.41-1.15 3c.4.31.82.58 1.24.86l1.28-3.35 3.7 1.41-1.47 3.86c.23.09.44.22.67.31s.47.13.7.21l1.47-3.86 3.71 1.41-1.28 3.35c.5.07 1 .15 1.5.19l1.15-3 3.7 1.42-.48 1.44c.55-.06 1.09-.09 1.64-.19l.3-.77 1.16.44c.81-.18 1.62-.39 2.44-.64l-3.08-1.17 1.41-3.71 3.7 1.41-1.21 3.19c.6-.21 1.21-.4 1.81-.65l.77-2 2 .76c.56-.28 1.11-.62 1.67-.94l-3.13-1.19 1.41-3.7 3.7 1.41-1.14 3c.7-.43 1.39-.89 2.09-1.36l.42-1.12.75.29c.46-.34.91-.69 1.36-1.05l-1.59-.61 1.41-3.7 3.53 1.34q1.53-1.49 3-3.15zM532.38 226l-3.7-1.41 1.41-3.71 3.7 1.42zm1.94-5.08l-3.71-1.41 1.41-3.7 3.71 1.41zm1.93-5.07l-3.71-1.41 1.42-3.71 3.7 1.41zm1.93-5.08l-3.7-1.41 1.41-3.7 3.7 1.41zm1.94-5.07l-3.71-1.41 1.41-3.71 3.71 1.42zm1.93-5.08l-3.71-1.41 1.42-3.7 3.7 1.41zm1.93-5.07l-3.7-1.41 1.41-3.71 3.7 1.41zm1.93-5.08l-3.7-1.41 1.41-3.7 3.7 1.41zm1.94-5.07l-3.71-1.4 1.41-3.71 3.71 1.41zM535.53 233l-3.71-1.41 1.41-3.71 3.71 1.41zm1.93-5.08l-3.71-1.41 1.42-3.7 3.7 1.41zm1.93-5.07l-3.7-1.41 1.41-3.71 3.7 1.41zm1.93-5.08l-3.7-1.41 1.41-3.7 3.71 1.41zm1.94-5.07l-3.71-1.42 1.41-3.7 3.71 1.41zm1.93-5.08l-3.7-1.41 1.41-3.7 3.7 1.41zm1.93-5.07l-3.7-1.41 1.41-3.71 3.7 1.41zm1.94-5.08l-3.71-1.41 1.41-3.7 3.71 1.41zm1.93-5.07l-3.7-1.41 1.41-3.71 3.7 1.41zm1.93-5.08l-3.7-1.41 1.41-3.7 3.7 1.41zm1.94-5.08l-3.71-1.41 1.41-3.7 3.71 1.41zM538.67 240l-3.67-1.38 1.41-3.7 3.71 1.41zm1.93-5l-3.7-1.41 1.41-3.7 3.7 1.41zm1.93-5.07l-3.7-1.41 1.41-3.71 3.7 1.41zm1.94-5.08l-3.71-1.41 1.41-3.7 3.71 1.41zm1.93-5.08l-3.7-1.41 1.41-3.7 3.7 1.41zm1.93-5.07l-3.7-1.41 1.41-3.7 3.7 1.41zm1.93-5.08l-3.7-1.41 1.41-3.7 3.71 1.41zm1.94-5.07l-3.7-1.41 1.41-3.71 3.7 1.41zm1.93-5.08l-3.7-1.41 1.41-3.7 3.7 1.41zm1.93-5.07l-3.7-1.41 1.41-3.71 3.7 1.41zm1.94-5.08l-3.71-1.41 1.41-3.7 3.71 1.41zm1.93-5.07l-3.7-1.41 1.41-3.71 3.7 1.41zm1.93-5.08l-3.7-1.41 1.41-3.7 3.7 1.41zM541.81 247l-3.7-1.41 1.41-3.7 3.7 1.41zm1.93-5.07l-3.7-1.41 1.41-3.71 3.7 1.41zm1.94-5.08l-3.68-1.37 1.41-3.7 3.71 1.41zm1.93-5.07l-3.71-1.41 1.42-3.71 3.7 1.41zm1.93-5.08l-3.7-1.41 1.41-3.7L551 223zm1.93-5.07l-3.7-1.41 1.41-3.71 3.71 1.41zm1.94-5.08l-3.71-1.41 1.41-3.7 3.71 1.41zm1.93-5.07l-3.7-1.41 1.41-3.71 3.7 1.41zm1.93-5.08l-3.7-1.41 1.41-3.7 3.7 1.41zm1.94-5.07L555.5 200l1.41-3.71 3.71 1.41zm1.93-5.08l-3.7-1.41 1.41-3.7 3.7 1.41zm1.93-5.08l-3.7-1.41 1.41-3.7 3.7 1.41zm1.94-5.07l-3.71-1.41 1.41-3.7 3.71 1.41zm1.93-5.07l-3.71-1.41 1.42-3.71 3.7 1.41zM546.88 249l-3.7-1.41 1.41-3.71 3.71 1.41zm1.94-5.08l-3.71-1.41 1.41-3.7 3.71 1.41zm1.93-5.07l-3.7-1.41 1.41-3.71 3.7 1.41zm1.93-5.08l-3.7-1.41 1.41-3.7 3.7 1.41zm1.94-5.07l-3.71-1.42 1.41-3.7L556 225zm1.93-5.08l-3.7-1.41 1.41-3.71 3.7 1.42zm1.93-5.08l-3.7-1.41 1.41-3.7 3.7 1.41zm1.94-5.07l-3.71-1.47 1.41-3.7 3.71 1.41zm1.93-5.07l-3.71-1.4 1.42-3.7 3.7 1.41zm1.93-5.08l-3.7-1.41 1.41-3.7 3.7 1.41zm1.93-5.08l-3.7-1.41 1.41-3.7 3.71 1.41zm1.94-5.07l-3.71-1.41 1.41-3.71 3.71 1.42zm1.93-5.08l-3.7-1.41 1.41-3.7 3.7 1.41zM572 183l-3.7-1.41 1.41-3.71 3.7 1.41zm-20 67.91l-3.7-1.41 1.41-3.71 3.7 1.42zm1.93-5.08l-3.7-1.41 1.41-3.7 3.7 1.41zm1.94-5.07l-3.71-1.41 1.41-3.7 3.71 1.41zm1.93-5.07l-3.7-1.42 1.41-3.7 3.7 1.41zm1.93-5.08L556 229.2l1.41-3.7 3.7 1.41zm1.94-5.08l-3.71-1.41 1.41-3.7 3.71 1.41zm1.93-5.07l-3.71-1.41 1.42-3.71 3.7 1.41zm1.93-5.08l-3.7-1.41 1.41-3.7 3.7 1.41zm1.93-5.07l-3.7-1.41 1.41-3.71 3.71 1.41zm1.94-5.08l-3.71-1.41 1.41-3.7 3.71 1.41zm1.93-5.07l-3.7-1.41L569 195l3.7 1.41zm1.93-5.08l-3.7-1.41 1.41-3.7 3.7 1.41zm1.94-5.07l-3.71-1.41 1.41-3.71 3.71 1.41zm1.93-5.08l-3.7-1.41 1.41-3.7 3.7 1.41zM557 252.84l-3.71-1.41 1.41-3.7 3.71 1.41zm1.93-5.07l-3.7-1.41 1.41-3.71 3.7 1.41zm1.93-5.08l-3.7-1.41 1.41-3.7 3.7 1.41zm1.93-5.07l-3.7-1.41 1.41-3.71 3.71 1.41zm1.94-5.08l-3.71-1.41 1.41-3.7 3.71 1.41zm1.93-5.07l-3.7-1.41 1.41-3.71 3.7 1.41zm1.93-5.08l-3.7-1.41 1.41-3.7 3.7 1.41zm1.94-5.07l-3.71-1.41 1.41-3.71 3.71 1.41zm1.93-5.08l-3.7-1.41 1.41-3.7 3.7 1.41zm1.93-5.08l-3.7-1.41 1.41-3.7 3.7 1.41zm1.94-5.07l-3.71-1.41 1.41-3.71 3.71 1.42zm1.97-5.09l-3.7-1.41 1.41-3.7 3.7 1.41zm1.93-5.07l-3.7-1.41 1.41-3.7 3.7 1.41zm1.93-5.07l-3.7-1.42 1.41-3.7 3.71 1.41zM564 249.7l-3.7-1.41 1.41-3.7 3.7 1.41zm1.94-5.07l-3.71-1.42 1.41-3.7 3.71 1.41zm1.93-5.08l-3.7-1.41 1.41-3.7 3.7 1.41zm1.93-5.08l-3.7-1.41 1.41-3.7 3.7 1.41zm1.93-5.07l-3.7-1.41 1.41-3.71 3.71 1.41zm1.94-5.08l-3.7-1.41 1.41-3.7 3.7 1.41zm1.93-5.07l-3.7-1.41 1.41-3.7 3.7 1.41zm1.93-5.08l-3.7-1.41 1.41-3.7 3.7 1.41zm1.94-5.07l-3.7-1.41 1.4-3.71 3.71 1.42zm1.93-5.08l-3.7-1.41 1.41-3.7 3.7 1.41zm1.93-5.07l-3.7-1.41 1.41-3.71 3.7 1.41zm1.94-5.08l-3.71-1.41 1.41-3.7 3.71 1.41zm1.93-5.07l-3.7-1.41 1.41-3.71 3.7 1.41zm-16.19 57.76l-3.7-1.41 1.41-3.71 3.7 1.42zm1.93-5.08l-3.7-1.41 1.41-3.7 3.71 1.41zm1.94-5.07l-3.67-1.41 1.41-3.71 3.71 1.41zm1.93-5.08l-3.7-1.41 1.41-3.7 3.7 1.41zm1.93-5.07l-3.7-1.41 1.41-3.71 3.7 1.41zm1.94-5.08l-3.68-1.41 1.41-3.7 3.71 1.41zm1.93-5.07L579 214.7l1.41-3.71 3.7 1.41zm1.93-5.08l-3.7-1.41 1.41-3.7 3.7 1.41zm1.94-5.07l-3.71-1.41 1.41-3.71 3.71 1.41zm1.93-5.08l-3.7-1.41 1.41-3.7 3.7 1.41zm1.93-5.07l-3.7-1.42 1.41-3.7 3.7 1.41zm-12.32 47.61l-3.7-1.41 1.41-3.71 3.7 1.41zm1.93-5.08l-3.7-1.41 1.41-3.7 3.7 1.41zm1.94-5.07l-3.71-1.41 1.41-3.71 3.71 1.41zm1.93-5.08l-3.7-1.41 1.41-3.7 3.7 1.41zm1.93-5.08l-3.7-1.41 1.41-3.7 3.7 1.41zm1.93-5.07l-3.7-1.41 1.41-3.71 3.71 1.42zm1.94-5.08l-3.62-1.41 1.41-3.7 3.71 1.41zm1.93-5.07l-3.7-1.41 1.41-3.71 3.7 1.41zm-1.77-6.49l1.41-3.7 3.7 1.41-1.41 3.7z" class="cls-8" data-name="Path 34"/>
            <path id="Path_35" d="M553.26 257.2a22.81 22.81 0 0 1-8.17-1.46c-14.75-5.62-24-28.86-14.2-54.52 10-26.33 25.51-35.85 45.7-28.17 10.45 4 17 10.6 19.34 19.66 2.21 8.39.87 19.08-4 31.78-7.29 19.25-23.21 32.71-38.67 32.71zm10.4-84.13c-12.95 0-22.88 9.51-30.33 29.08-9.21 24.19-.87 46 12.69 51.15a20.35 20.35 0 0 0 7.24 1.28c11.77 0 28.15-9.71 36.27-31 4.63-12.18 5.94-22.33 3.87-30.18-2.18-8.32-8-14.17-17.74-17.88a33.81 33.81 0 0 0-12-2.45z" class="cls-5" data-name="Path 35"/>
            <path id="Path_36" d="M537.53 285.45L531 283l.47-1.22c3.22-8.46 1.54-32.28-2.07-43.87l2.5-.78c3.3 10.61 5.53 33.9 2.43 44.35l1.77.67c4.63-9.86 21.79-25.77 31.31-31.49l1.35 2.24c-10.41 6.25-27.51 22.91-30.73 31.38z" class="cls-5" data-name="Path 36"/>
            <path id="Rectangle_53" d="M0 0h8.07v47H0z" class="cls-6" data-name="Rectangle 53" transform="rotate(20.85 -499.655 1583.68)"/>
            <path id="Path_37" d="M517.19 308.53c3.91 7.49 8.86 7.42 7.21 2.87 0 0 2.08-2.29 2-2.87s-.85-3.59-.85-3.59 1.93.48 2.71 0-2.3-10.16-2.3-10.16l-8.72 10.16z" class="cls-4" data-name="Path 37"/>
            <path id="Path_38" d="M566.68 344.31c-.18 1.1-23.74 19.14-23.74 19.14 3.67 9.48 8.23 11.58 11.08 11.76s26.43-12.55 26.43-12.55z" class="cls-4" data-name="Path 38"/>
            <path id="Path_39" d="M614.82 304.94l-3.32 7.88 12.07 15.52 2.93-7.13h7.01l6.66 10.24h3.21l-5.5-13.99 4.03-8.23 10.28 2.17-12.02-16.8-8.32 1.45z" class="cls-5" data-name="Path 39"/>
            <path id="Path_40" d="M639.27 300.59l-6.48-16.06s5.5-3.53 5.38-7.38c0-1.62-3-5.69-8.4-11.23-.59-.59 2.73-1.75 2.12-2.34-1.18-1.16-10.49-2.09-12.43-4.5-7.11-8.84-10-10.16-14.49-9.88-10.08.61-27.82 18.65-21 29.45s11.94 14 29.06 21.06l3.32 9.52a12.28 12.28 0 0 0 18.19 6.3 12.26 12.26 0 0 0 4.73-14.94z" class="cls-4" data-name="Path 40"/>
            <path id="Path_41" d="M598.54 238.42a22.519 22.519 0 0 0-3.25 2.16c-4.95 3.85-5.07 9.4-8.52 13.91-2.51 3.28-6.46 4.85-9.32 8a12.66 12.66 0 0 0-3.62 8.7 8.63 8.63 0 0 0 5.92 7.52c-3 8.21 11.25 13.55 17.54 15.89s15.7 5.12 15.7 5.12l-.44-11.57s-9.68-.25-10.27-4.52 5.17-3 5.17-3 1.6 1.28 3.73 2.87a29.628 29.628 0 0 1 1-5.15 1.627 1.627 0 0 1 .1-.18l-7.7-7.48s7.94-4.48 3.59-10.53c6.68-9.88 3.21-28.6-9.63-21.74z" class="cls-6" data-name="Path 41"/>
            <path id="Path_42" d="M639.76 414.91l-1.09-.71a254.19 254.19 0 0 0 33.3-77l1.26.32a254.91 254.91 0 0 1-33.47 77.39z" class="cls-9" data-name="Path 42"/>
            <path id="Path_43" d="M664.1 400.81l-1.08-.74a59.62 59.62 0 0 0 10.17-27.59l1.3.14a60.9 60.9 0 0 1-10.39 28.19z" class="cls-9" data-name="Path 43"/>
            <path id="Path_44" d="M641.13 160.75c.3 2.14 4.39 6.17 4.39 6.17l2.63 8.22h11.53s.06-15.84.09-17.91c.06-4.34-4.55-15.89-5-16.67s-2-.25-2-.25l1.47 4.57s-3-6.46-3.22-6.66-1.65.29-1.65.29-.63-1.1-.94-1.18-1.55.86-1.55.86l1.22 6.55s-2.71-7.4-3-7.35-2 .65-2 .65l1.3 12.65s-.35 3.91-.49 4.54c-1.07-2.06-2.51-4.56-3.23-4.53-1.24.06.14 7.91.45 10.05z" class="cls-4" data-name="Path 44"/>
            <circle id="Ellipse_16" cx="8.56" cy="8.56" r="8.56" class="cls-10" data-name="Ellipse 16" transform="translate(621.98 117.64)"/>
            <path id="Path_45" d="M310.09 528.29l.57 28.93s22.5 7.49 22.67 9.55l-35.75 2.53 1-40.2z" class="cls-11" data-name="Path 45"/>
            <path id="Path_46" d="M43.05 430.43L16.1 424s-18.73 14.57-20.54 13.56l17.78-31.12 35.42 14z" class="cls-11" data-name="Path 46"/>
            <path id="Path_47" d="M175.25 272.39s26.56 91.7 49.6 110.29c23.51 19 44.57 33.67 44.57 33.67l21.35 106.79s19.58 19.23 19-1.26c-1.19-42.78-3.48-110.15-6.38-118.26-4.28-12-74-118.82-74-118.82z" class="cls-12" data-name="Path 47"/>
            <path id="Path_48" d="M290.78 523.17l7.08 35.4 12.8-1.35s-.31-14.87-.87-35.34c-6.34.37-12.68.83-19.01 1.29z" class="cls-5" data-name="Path 48"/>
            <path id="Path_49" d="M244.33 290.44s-44.53 112.27-57.8 132.82S163.67 460 156 460.42c-5 .27-61.54-14.89-101.19-25.73-21.92-6 2.39-21.28 2.39-21.28l86.28 6.72 26.24-107.07 39.21-33z" class="cls-12" data-name="Path 49"/>
            <path id="Path_50" d="M57.16 413.41l-32.63-2.54L16.1 424s16.77 4.67 38.67 10.65q1.23-10.59 2.39-21.24z" class="cls-5" data-name="Path 50"/>
            <path id="Path_51" d="M160.84 349.15l43.21 38.21 9.25-19.11-46.16-48.94z" class="cls-5" data-name="Path 51"/>
            <path id="Path_52" d="M340.37 161s-33.63 63.26-39 64.74c-2.58.72-18.52-5.91-32-10.63-14.37-5 10.05-27.57 10.05-27.57l15.83 7.51 29.08-34" class="cls-12" data-name="Path 52"/>
            <path id="Path_53" d="M275.42 113.59q-.075 1.5-.24 3c-2.23 20.61-16 39.89-35.37 47.7-8 3.22-15.88.88-24.19 1.8a113.11 113.11 0 0 1-36.93-1.6c-14.11-3.08-30.69-8.91-38.94-21.64-5.75-8.9-6.26-20.78-1.86-30.41s13.39-16.91 23.56-19.85c8.73-2.53 18.1-2 26.83-4.57 16.3-4.72 29-19.48 45.85-21.32 11.78-1.28 23.76 4.45 31.24 13.63s10.68 21.43 10.05 33.26z" class="cls-6" data-name="Path 53"/>
            <path id="Path_54" d="M279.49 187.56l-27.16-15.78-11.33 32.9s14.1 5.42 28.47 10.45q4.65-13.87 10.02-27.57z" class="cls-11" data-name="Path 54"/>
            <path id="Path_55" d="M240.72 156.74l9.25-21s7.89 2.14 11.36-1.21c1.3-1.26 2.62-8 3.28-16.36.08-1 .15-2 .21-3.07s4.39 1.84 4.43.74c.08-2.27-4.18-8.6-4.22-10.89-.19-10.59-1.73-20.84-5.69-24.7-9-8.82-40.67-10.12-45 5.25a44.39 44.39 0 0 0 12.44 44.64l-8.56 21.78z" class="cls-12" data-name="Path 55"/>
            <path id="Path_56" d="M175.25 272.39a46.482 46.482 0 0 0-6.79 4.87c-7.74 7.08-17.49 22.17-2.35 47.16 10.29 17 35.69 39.66 58.73 58.25l16.23-15.76-5.66-12.91 12.7 8.5 19.64-18.18c-8.29-13.06-16.64-26.05-23.42-36.56v-17.32l-14.88-5.64v1.75" class="cls-5" data-name="Path 56"/>
            <path id="Path_57" d="M219.82 139.8c-14-2-29.72 9.15-37.74 12.12s3.46 96.66 3.46 96.66l-10.29 23.81 69.08 18.05 2.73-46.91c8-28.26 21.93-50 19-56.21-8.06-16.94-31.13-45.32-46.24-47.52z" class="cls-11" data-name="Path 57"/>
            <path id="Path_58" d="M207.83 368.8a.93.93 0 0 1-.57-.19c-11.58-8.65-20.71-18.87-30.38-29.69-2.81-3.15-5.64-6.32-8.54-9.45a.95.95 0 1 1 1.39-1.29c2.91 3.15 5.74 6.32 8.56 9.48 9.6 10.74 18.67 20.9 30.11 29.44a.94.94 0 0 1-.57 1.7z" class="cls-13" data-name="Path 58"/>
            <path id="Path_59" d="M129.85 261.56c1-5.5 2.06-11.17 5.22-15.77a53 53 0 0 1 1.39 16.65 8.82 8.82 0 0 1-1 4 3.4 3.4 0 0 1-3.43 1.76 3.44 3.44 0 0 1-2.4-2.76 10.16 10.16 0 0 1 .22-3.88z" class="cls-4" data-name="Path 59"/>
            <g id="_Group_" data-name="&lt;Group&gt;">
                <path id="Path_60" d="M325.22 153.39c2.43 2.81-1.7 10-4.84 14.05C323.49 171.2 324.3 180 327 184c12.8-23.31 22.46-33.21 23.4-36.29 2.08-6.83 2.88-10.66-3.5-10.65s-3.43-7.66-8.72-6.81-3.44-8.24-8.49-5.38-3.5 13.49-3.5 13.49-10.29 4.24-.97 15.03z" class="cls-12" data-name="Path 60"/>
            </g>
            <path id="Path_61" d="M163.52 159.17c-18.87 7.37-37.09 15-38.47 16.4-2.63 2.65.59 27.16 2.72 42.19 3.22 27.23 2.62 43.39 3.82 46.38 2.66 6.63 4.4 10.17 8.87 6.84s7 4.45 10.2 1 7.38 4.92 9.19 0-5.68-12.79-5.68-12.79 4.65-8.83-8.37-12.78c-3.15-.95-2.61-9.62-2.66-12-.24-9.41 1.63-25.41 3.86-42.25l23.92-8.16s4.33-29.41-7.4-24.83z" class="cls-12" data-name="Path 61"/>
            <path id="Path_62" d="M227.07 157.84a19.88 19.88 0 0 0-26.3-14.67c-9.93 3.62-23.79 10.74-37.25 16 2.74 11.36 5.18 13.37 7.4 24.84l41.32-2.77a19.9 19.9 0 0 0 14.83-23.4z" class="cls-11" data-name="Path 62"/>
            <path id="Path_63" d="M187.38 185.68a1 1 0 0 1-.94-.86.94.94 0 0 1 .86-1c8.47-.76 18.07-1.62 26.13-5.71 7.21-3.68 14.3-11.45 13.89-20.53a.94.94 0 0 1 .9-1 .89.89 0 0 1 1 .9c.45 9.93-7.16 18.35-14.92 22.3-8.37 4.26-18.17 5.14-26.81 5.91z" class="cls-14" data-name="Path 63"/>
            <path id="Path_64" d="M261.43 209.93a1 1 0 0 1-.41-.09.94.94 0 0 1-.43-1.27 39.57 39.57 0 0 0 3.61-22.82.95.95 0 0 1 1.88-.27 41.55 41.55 0 0 1-3.8 23.92.93.93 0 0 1-.85.53z" class="cls-14" data-name="Path 64"/>
            <path id="Path_65" d="M239.06 97.39a16.21 16.21 0 0 0-1.32 4.6c-.92 6.45 1.92 13 1 19.45a16.7 16.7 0 0 1-33.21-2.82c.17-3.41 2.23-6.27 2.77-9.6 1.44-8.92-2.94-20.87 4.39-28.24s21.17-9 31.64-8.5c3.68.18 12.71 4 15.9 6 4.27 2.59 3.85 10 3.89 14.85 0-1.28-6.88-2.87-7.93-3a18.81 18.81 0 0 0-8.5.53c-4.13 1.12-7.01 3.34-8.63 6.73z" class="cls-6" data-name="Path 65"/>
            <path id="Path_66" d="M376 469.49l49.29 82.62L459 698.37h12.24s-4.29-153-4.9-158.5-47.14-104.65-47.14-104.65z" class="cls-15" data-name="Path 66"/>
            <path id="Path_67" d="M471.22 698.37l2.2 11.35 19.02 7.27-32.64 7.56-.82-26.18z" class="cls-5" data-name="Path 67"/>
            <path id="Path_68" d="M410.55 522.89a4 4 0 0 1 3.79-4.14L568 511.44a4 4 0 0 1 .35 7.93l-153.65 7.31h-.18a4 4 0 0 1-3.97-3.79zm46.27 147.49a3.93 3.93 0 0 0 2.93-1.29l114.63-140.26a4 4 0 0 0-5.86-5.36L453.9 663.74a4 4 0 0 0 2.92 6.64z" class="cls-16" data-name="Path 68"/>
            <path id="Path_69" d="M459.04 667.59l-2.11-7.17 6.57-7.18 2.62 8.89-4.22 4.62z" class="cls-16" data-name="Path 69"/>
            <path id="Path_70" d="M403.81 488.13c-4.63-2.64-12-.86-13.58 4.71-1.54 5.37 3.43 11.5 9 11.09s10-6.93 7.8-12.19a7.38 7.38 0 0 0-3.22-3.61z" class="cls-5" data-name="Path 70"/>
            <path id="Rectangle_54" d="M0 0h41.74v5.35H0z" class="cls-6" data-name="Rectangle 54" transform="rotate(-42.6 938.095 -184.805)"/>
            <path id="Path_71" d="M531.86 647.53h76.83l-74.21-19.89a1.16 1.16 0 0 1 .6-2.24l74.21 19.89-66.54-38.42a1.16 1.16 0 1 1 1.17-2l66.53 38.41L556.13 589a1.163 1.163 0 0 1 1.64-1.65l54.33 54.33-38.42-66.54a1.16 1.16 0 0 1 2-1.16l38.42 66.54-19.89-74.21a1.16 1.16 0 1 1 2.24-.6l19.89 74.21V563a1.16 1.16 0 0 1 2.32 0v76.83l19.89-74.21a1.16 1.16 0 1 1 2.24.6l-19.89 74.21 38.42-66.54a1.16 1.16 0 0 1 2 1.16l-38.41 66.54 54.33-54.33a1.16 1.16 0 0 1 1.64 0 1.18 1.18 0 0 1 0 1.65l-54.33 54.32 66.54-38.41a1.16 1.16 0 0 1 1.16 2l-66.54 38.41 74.21-19.88a1.16 1.16 0 1 1 .6 2.24l-74.21 19.89h76.83a1.16 1.16 0 0 1 0 2.32h-76.81l74.21 19.89a1.16 1.16 0 0 1-.29 2.28 1.1 1.1 0 0 1-.31 0l-74.21-19.89 66.54 38.42a1.17 1.17 0 0 1 .42 1.59 1.15 1.15 0 0 1-1 .58 1.1 1.1 0 0 1-.58-.16l-66.54-38.41 54.33 54.33a1.18 1.18 0 0 1 0 1.65 1.2 1.2 0 0 1-.82.34 1.17 1.17 0 0 1-.82-.34l-54.33-54.33 38.41 66.54a1.16 1.16 0 0 1-.42 1.58 1.1 1.1 0 0 1-.58.16 1.18 1.18 0 0 1-1-.58l-38.41-66.54 19.88 74.21a1.15 1.15 0 0 1-.82 1.42 1 1 0 0 1-.3 0 1.16 1.16 0 0 1-1.12-.86l-19.89-74.21v76.83a1.16 1.16 0 1 1-2.32 0v-76.79l-19.89 74.21a1.14 1.14 0 0 1-1.12.86 1 1 0 0 1-.3 0 1.16 1.16 0 0 1-.82-1.42l19.89-74.21-38.42 66.54a1.16 1.16 0 0 1-2-1.16l38.42-66.54-54.33 54.33a1.2 1.2 0 0 1-.82.34 1.17 1.17 0 0 1-.82-2l54.32-54.33-66.53 38.42a1.163 1.163 0 0 1-1.17-2.01l66.54-38.42L535.08 672a1 1 0 0 1-.3 0 1.16 1.16 0 0 1-.3-2.28l74.21-19.89h-76.83a1.16 1.16 0 1 1 0-2.32z" class="cls-17" data-name="Path 71"/>
            <path id="Path_72" d="M519.1 649a98.41 98.41 0 1 1 98.413 98.42A98.408 98.408 0 0 1 519.1 649zm7.92 0a90.5 90.5 0 1 0-.02 0z" class="cls-6" data-name="Path 72"/>
            <path id="Path_73" d="M525.68 649a91.83 91.83 0 1 1 91.83 91.83A91.83 91.83 0 0 1 525.68 649zm11.79 0a80 80 0 1 0 80-80 80 80 0 0 0-80 80z" class="cls-5" data-name="Path 73"/>
            <path id="Path_74" d="M528.53 649a89 89 0 1 0 89-89 89 89 0 0 0-89 89zm1.22 0a87.77 87.77 0 1 1 87.767 87.77A87.77 87.77 0 0 1 529.75 649z" class="cls-13" data-name="Path 74"/>
            <path id="Path_75" d="M239.72 647.53h76.83l-74.21-19.89a1.16 1.16 0 1 1 .6-2.24l74.21 19.89-66.54-38.42a1.16 1.16 0 0 1 1.16-2l66.54 38.41L264 589a1.17 1.17 0 0 1 1.65-1.65L320 641.63l-38.41-66.54a1.16 1.16 0 0 1 2-1.16L322 640.47l-19.89-74.21a1.16 1.16 0 1 1 2.24-.6l19.89 74.21V563a1.16 1.16 0 0 1 2.32 0v76.83l19.89-74.21a1.16 1.16 0 1 1 2.24.6l-19.89 74.21 38.42-66.54a1.16 1.16 0 0 1 2 1.16l-38.41 66.54 54.32-54.33a1.17 1.17 0 0 1 1.65 1.65l-54.33 54.32L399 604.86a1.16 1.16 0 0 1 1.16 2l-66.54 38.41 74.18-19.87a1.16 1.16 0 0 1 .6 2.24l-74.21 19.89H411a1.16 1.16 0 0 1 0 2.32h-76.81l74.21 19.89a1.16 1.16 0 0 1-.3 2.28 1 1 0 0 1-.3 0l-74.21-19.89 66.54 38.42a1.17 1.17 0 0 1 .42 1.59 1.15 1.15 0 0 1-1 .58 1.1 1.1 0 0 1-.58-.16l-66.54-38.46 54.33 54.33a1.167 1.167 0 0 1-1.65 1.65l-54.32-54.33 38.41 66.54a1.16 1.16 0 0 1-2 1.16l-38.42-66.54 19.89 74.21a1.15 1.15 0 0 1-.82 1.42 1 1 0 0 1-.3 0 1.15 1.15 0 0 1-1.12-.86l-19.89-74.21v76.83a1.16 1.16 0 1 1-2.32 0v-76.79l-19.89 74.21a1.16 1.16 0 0 1-1.12.86 1 1 0 0 1-.3 0 1.15 1.15 0 0 1-.82-1.42L322 656.91l-38.42 66.54a1.18 1.18 0 0 1-1 .58 1.16 1.16 0 0 1-1-1.74L320 655.75l-54.32 54.33a1.167 1.167 0 1 1-1.65-1.65l54.33-54.33-66.54 38.42a1.1 1.1 0 0 1-.58.16 1.15 1.15 0 0 1-1-.58 1.17 1.17 0 0 1 .42-1.59l66.54-38.42L242.94 672a1 1 0 0 1-.3 0 1.16 1.16 0 0 1-.3-2.28l74.21-19.89h-76.83a1.16 1.16 0 1 1 0-2.32z" class="cls-17" data-name="Path 75"/>
            <path id="Path_76" d="M227 649a98.41 98.41 0 1 1 98.413 98.42A98.408 98.408 0 0 1 227 649zm7.92 0a90.51 90.51 0 1 0-.04 0z" class="cls-6" data-name="Path 76"/>
            <path id="Path_77" d="M233.54 649a91.83 91.83 0 1 1 91.83 91.83A91.83 91.83 0 0 1 233.54 649zm11.79 0a80 80 0 1 0 80-80 80 80 0 0 0-80 80z" class="cls-5" data-name="Path 77"/>
            <path id="Path_78" d="M236.39 649a89 89 0 1 0 89-89 89 89 0 0 0-89 89zm1.22 0a87.76 87.76 0 1 1 87.763 87.77A87.758 87.758 0 0 1 237.61 649z" class="cls-13" data-name="Path 78"/>
            <path id="Path_79" d="M425.25 646.05l5.35-.09a105.1 105.1 0 0 0-206.71-25.06l5.17 1.36A99.8 99.8 0 0 1 325.53 548c54.08 0 98.82 44 99.72 98.05z" class="cls-16" data-name="Path 79"/>
            <path id="Path_80" d="M514.31 672l5.19-1.3a99.8 99.8 0 0 1 134.93-116.44l2.05-4.94A105.14 105.14 0 0 0 514.31 672z" class="cls-16" data-name="Path 80"/>
            <path id="Path_81" d="M322.86 648.58h5.33c0-.4 3.29-40.5 5-53.26 1.49-10.84 11.19-45.41 14-55.35 15.23 5.19 47.91 16.53 52.8 19.19 4.73 2.59 10 12.16 11.69 15.63l4.83-2.29c-.68-1.44-6.86-14.16-14-18-6.67-3.64-54.28-19.79-56.31-20.48l-2.65-.89-.78 2.69c-.53 1.86-13.15 45.77-14.94 58.8-.73 5.35-1.7 15.16-2.6 24.94-1.25-11-2.74-21.92-4.08-26.33-2.93-9.67-15.9-56.9-16-57.38l-5.16 1.42c.13.47 13.12 47.78 16.07 57.51 2.94 9.38 6.76 53.36 6.8 53.8z" class="cls-17" data-name="Path 81"/>
            <path id="Path_82" d="M610.7 646.6a7.062 7.062 0 1 0 5.06-5.06 7 7 0 0 0-5.06 5.06z" class="cls-16" data-name="Path 82"/>
            <path id="Path_83" d="M318.72 646.6a7 7 0 1 0 5.06-5.06 7 7 0 0 0-5.06 5.06z" class="cls-16" data-name="Path 83"/>
            <path id="Path_84" d="M568.32 518.75a3.4 3.4 0 0 0 3.25-4.33c-2.8-9.68-12.56-47.88-13.89-52.63a.46.46 0 0 1 .11-.45.44.44 0 0 1 .44-.17 3.39 3.39 0 0 0 .86-6.72 7.26 7.26 0 0 0-7.93 9.16c1.33 4.77 11.1 43 13.9 52.69a3.4 3.4 0 0 0 3.26 2.45z" class="cls-5" data-name="Path 84"/>
            <path id="Path_85" d="M619 652.61a3.37 3.37 0 0 0 3-5c-2.37-4.32-4.66-8.69-6.92-13.06-2-3.9-4-7.83-5.91-11.78A338.352 338.352 0 0 1 595.62 590c-.32-.89-.64-1.77-1-2.64q-4.8-13.62-9.23-27.36-5.52-17-10.56-34.25c-.05-.17-.11-.35-.16-.53a3.385 3.385 0 0 0-6.5 1.89c6.94 23.87 13.92 44.75 17.46 55.07 3.68 10.69 7.7 21.43 12.09 31.9 3.24 7.74 7 15.27 10.84 22.73 2.41 4.66 4.85 9.31 7.37 13.91l.08.15a3.4 3.4 0 0 0 2.99 1.74z" class="cls-16" data-name="Path 85"/>
            <path id="Path_86" d="M456.83 669.39a3 3 0 0 0 .38-5.93l-125.39-16.54L417 524.66a3 3 0 1 0-4.89-3.4l-87.96 126.27a3 3 0 0 0 2.05 4.65l130.24 17.18z" class="cls-16" data-name="Path 86"/>
            <path id="Path_87" d="M573.08 549.77l10.49-4.16-12.53-42.47-10.78 3.19z" class="cls-16" data-name="Path 87"/>
            <path id="Rectangle_55" d="M0 0h5.29v183.22H0z" class="cls-5" data-name="Rectangle 55" transform="rotate(-16.31 1915.603 -1160.001)"/>
            <path id="Path_88" d="M445.69 661.94l9.03 1.2.62 2.1-7.99 2.35z" class="cls-16" data-name="Path 88"/>
            <path id="Rectangle_56" d="M0 0h8.33v158.48H0z" class="cls-16" data-name="Rectangle 56" transform="rotate(-16.38 1994.99 -1160.261)"/>
            <path id="Path_89" d="M382.35 474c-5.58-.8-11.64-.94-14.7 2.6a5.68 5.68 0 0 0-1.2 5.54c1.89 5 14 7.89 18.48 9.52 8 3 16.65 5.31 25.27 3.94 12.53-2 22.79-10.28 34.53-14.5 1.24-.45 2.61-1 3.21-2.18.89-1.74-.49-3.94-2.31-4.66s-3.86-.37-5.78 0c-8.53 1.57-17.16 3.86-25.87 3.86-7.61 0-15.67-1.49-23.42-2.68-2.21-.39-5.13-1.03-8.21-1.44z" class="cls-6" data-name="Path 89"/>
            <path id="Path_90" d="M443.15 642l7.49-3.23a133.147 133.147 0 0 0-8-15.07c-5-8.21-2.44-10.8-4.59-15.8s-6.53-3.11-6.53-3.11-4.37 1.89-2.22 6.88 5.82 4.9 8.34 14.18a134.933 134.933 0 0 0 5.51 16.15zm-8.92-31a2 2 0 1 1 1.07-2.69 2.05 2.05 0 0 1-1.07 2.69z" class="cls-6" data-name="Path 90"/>
            <path id="Path_91" d="M474.08 652.62a23.57 23.57 0 1 1-32.89-5.39 23.57 23.57 0 0 1 32.89 5.39z" class="cls-6" data-name="Path 91"/>
            <path id="Path_92" d="M433.33 640c-.41.35-.82.69-1.22 1a2.17 2.17 0 0 1-3 3.1c-.35.41-.69.83-1 1.25a2.17 2.17 0 0 1-2.44 3.58c-.28.46-.54.93-.79 1.4a2.191 2.191 0 1 1-1.79 4c-.18.5-.36 1-.53 1.51a2.171 2.171 0 1 1-1.06 4.21c-.1.52-.19 1-.26 1.58a2.171 2.171 0 0 1-.33 4.33v1.61a2.17 2.17 0 0 1 .43 4.31c.09.53.19 1.06.3 1.58a2.172 2.172 0 1 1 1.18 4.18c.17.5.36 1 .56 1.5a2.171 2.171 0 0 1 1.89 3.91c.26.47.53.93.82 1.38a2.17 2.17 0 0 1 2.53 3.52q.51.63 1.05 1.23a2.17 2.17 0 0 1 3.1 3c.41.35.82.69 1.24 1a2.17 2.17 0 1 1 3.59 2.44c.46.27.93.54 1.4.79a2.189 2.189 0 1 1 4 1.78c.5.19 1 .37 1.52.53a2.17 2.17 0 0 1 4.2 1.07c.53.1 1.06.18 1.59.26a2.17 2.17 0 0 1 4.32.33h1.61a2.171 2.171 0 1 1 4.32-.43c.53-.08 1-.18 1.58-.29a2.17 2.17 0 0 1 4.17-1.18c.51-.18 1-.37 1.51-.57a2.17 2.17 0 0 1 3.91-1.88c.46-.26.92-.54 1.38-.82a2.17 2.17 0 0 1 3.52-2.53c.42-.35.82-.69 1.22-1.05a2.17 2.17 0 0 1 3-3.1c.35-.41.69-.82 1-1.25a2.17 2.17 0 0 1 2.45-3.58c.27-.46.53-.93.78-1.4a2.191 2.191 0 0 1 1.79-4c.19-.51.36-1 .53-1.52a2.171 2.171 0 0 1 1.06-4.21c.1-.52.19-1 .26-1.58a2.172 2.172 0 0 1 .34-4.33v-1.61a2.17 2.17 0 0 1-.43-4.31c-.09-.53-.19-1.06-.3-1.58a2.17 2.17 0 1 1-1.17-4.18q-.27-.75-.57-1.5a2.17 2.17 0 0 1-1.88-3.91c-.27-.47-.54-.92-.83-1.38a2.17 2.17 0 0 1-2.53-3.52c-.34-.42-.69-.83-1-1.22a2.18 2.18 0 0 1-3.11-3c-.4-.35-.82-.69-1.24-1a2.17 2.17 0 0 1-3.58-2.44c-.46-.27-.93-.54-1.41-.79a2.189 2.189 0 0 1-4-1.78c-.5-.19-1-.37-1.52-.53a2.17 2.17 0 0 1-4.2-1.07c-.53-.1-1.06-.18-1.59-.26a2.17 2.17 0 0 1-4.32-.33h-1.61a2.171 2.171 0 0 1-4.32.43c-.52.08-1 .18-1.58.3a2.17 2.17 0 0 1-4.17 1.17c-.51.18-1 .37-1.51.57a2.17 2.17 0 0 1-3.9 1.88c-.47.26-.93.54-1.39.82a2.17 2.17 0 0 1-3.52 2.53zm6.59 5.45a109.989 109.989 0 1 0 0 .01z" class="cls-6" data-name="Path 92"/>
            <path id="Path_93" d="M466.79 690.88l-7.5 3.23a134.341 134.341 0 0 0 8 15.07c5 8.21 2.43 10.8 4.59 15.8s6.53 3.11 6.53 3.11 4.37-1.89 2.21-6.88-5.81-4.9-8.34-14.18a134 134 0 0 0-5.49-16.15zm8.91 31a1.114 1.114 0 1 1 0-.04z" class="cls-6" data-name="Path 93"/>
            <path id="Rectangle_57" d="M0 0h101.07v5.35H0z" class="cls-5" data-name="Rectangle 57" transform="translate(273.51 532.61)"/>
            <path id="Path_94" d="M614.35 647.46a3.28 3.28 0 0 0 4 4 3.24 3.24 0 0 0 2.28-2.27 3.3 3.3 0 0 0-4.06-4.06 3.26 3.26 0 0 0-2.22 2.33z" class="cls-6" data-name="Path 94"/>
            <path id="Path_95" d="M560.26 508.15a1.858 1.858 0 0 0 .52-.07l10.78-3.18a1.83 1.83 0 0 0-1-3.51l-10.78 3.18a1.83 1.83 0 0 0 .52 3.58z" class="cls-6" data-name="Path 95"/>
            <path id="Path_96" d="M573.08 551.6a1.818 1.818 0 0 0 .68-.13l10.49-4.17a1.824 1.824 0 0 0-1.35-3.39l-10.49 4.16a1.83 1.83 0 0 0 .67 3.53z" class="cls-6" data-name="Path 96"/>
            <path id="Path_97" d="M408.14 517.06a1.67 1.67 0 0 0 .44-.06l8-2.35a1.522 1.522 0 0 0-.86-2.92l-8 2.34a1.52 1.52 0 0 0 .42 3z" class="cls-6" data-name="Path 97"/>
            <path id="Path_98" d="M322.36 647.46a3.29 3.29 0 0 0 4.06 4 3.25 3.25 0 0 0 2.27-2.27 3.29 3.29 0 1 0-6.33-1.78z" class="cls-6" data-name="Path 98"/>
            <path id="Path_99" d="M410 410.74l9.18 24.48s83.84 14.69 91.19 19 11.62 15.3 0 33.05S444.9 598 444.9 598l-14.07-7.35s25.7-75.88 28.15-81.39S471.83 486 471.83 486h-94.25c-21.41 0-51.4-33.14-32.43-72.31z" class="cls-15" data-name="Path 99"/>
            <path id="Path_100" d="M447.3 331.67l19.5-20.6s6.13 4.14 10.08 2.29c1.48-.69 4.58-6.05 7.6-13 .36-.83.72-1.69 1.07-2.56s3.22 2.86 3.58 1.93c.73-1.92-1.06-8.58-.42-10.55 2.94-9.11 4.63-18.32 2.38-22.79-5.14-10.19-31.81-20.57-40-8.7a40.15 40.15 0 0 0-2.45 41.82l-13.7 16.11z" class="cls-15" data-name="Path 100"/>
            <path id="Path_101" d="M480.93 284.29c-8.19 1.45-15.59.55-23-.6 0 0 2.51 7.26-2.68 16-5 8.5-12.37 16.67-22.49 17.32-22.59 1.45-52.42-16.15-52.86-40.8-.22-12.44 8.5-24.87 21.14-26.73 7.49-1.11 15.07.6 22.54 1.9a64.94 64.94 0 0 0 29.65-1.38c9.69-2.89 19.61-6.31 29.59-2.53 7.33 2.78 15.9 10.52 16.38 18.93.63 11.05-8.14 16.1-18.27 17.89z" class="cls-6" data-name="Path 101"/>
            <path id="Path_102" d="M419.66 427a16.77 16.77 0 0 0 7.91-13.27l12.73-42s18-2.21 20.41-9.16-15.14-51-27.3-55.13c-12.73-4.36-41 23.62-49.79 33.85-9.05 10.55-35.06 41.39-40.53 57.63a16.75 16.75 0 0 0 1.63 14.08l.43.69z" class="cls-5" data-name="Path 102"/>
            <path id="Path_103" d="M434 486l5.78-47.08-19.78-3.7-.32-8.27-74.53-13.25s-8.78 19.5-6.91 37.4 18.52 34.9 39.34 34.9z" class="cls-18" data-name="Path 103"/>
            <path id="Path_104" d="M420.57 610.76l-1.17 6.49 35.6 6.14.89-5.5s-24.63-8.12-35.32-7.13z" class="cls-6" data-name="Path 104"/>
            <path id="Path_105" d="M444.9 598.01l-1.74 7.01 12.73 12.87-35.32-7.13 10.26-20.1z" class="cls-5" data-name="Path 105"/>
            <path id="Path_106" d="M459.8 724.55l1.02 10.95 34.43-6.96-2.81-11.55z" class="cls-6" data-name="Path 106"/>
            <path id="Path_107" d="M414.41 434.06h-.15l-6.83-1.14a.9.9 0 1 1 .29-1.78l6.83 1.14a.9.9 0 0 1 .75 1 .91.91 0 0 1-.89.78z" class="cls-19" data-name="Path 107"/>
            <path id="Path_108" d="M408.14 331.67c15.48-7.82 57.5 42.79 75.15 63.32l70 41.14s15.56-5.59 18.6-5.7 4 4 3.5 8.75-32.59 14.95-32.59 14.95a46 46 0 0 1-4.31-9.77s-59.41-21.91-69-26.52-98.74-67.27-61.35-86.17z" class="cls-15" data-name="Path 108"/>
            <path id="Path_109" d="M546.74 461.82a4.85 4.85 0 0 0 3.91-2c.11-.16 12.15-16.23 24.31-10.71a4.833 4.833 0 1 0 4-8.8c-19.32-8.79-35.45 12.87-36.13 13.8a4.84 4.84 0 0 0 3.91 7.69z" class="cls-5" data-name="Path 109"/>
            <path id="Path_110" d="M387.86 399.61a101.614 101.614 0 0 1-16.848-1.408.9.9 0 0 1-.742-1 .92.92 0 0 1 1-.74A99.87 99.87 0 0 0 417 393.49a.9.9 0 1 1 .53 1.72 101.508 101.508 0 0 1-29.67 4.4z" class="cls-13" data-name="Path 110"/>
            <path id="Path_111" d="M435.59 575.86a1 1 0 0 1-.3-.05.9.9 0 0 1-.54-1.16L449.86 533a.9.9 0 0 1 1.69.61l-15.11 41.66a.91.91 0 0 1-.85.59z" class="cls-20" data-name="Path 111"/>
            <path id="Path_112" d="M447.8 594.5a.84.84 0 0 1-.43-.11.9.9 0 0 1-.37-1.22l14.66-27.4a.89.89 0 0 1 1.22-.37.9.9 0 0 1 .37 1.22L448.59 594a.88.88 0 0 1-.79.5z" class="cls-20" data-name="Path 112"/>
        </g>
    </g>
</svg>
